<?xml version="1.0" encoding="UTF-8"?>
<svg id="Capa_2" data-name="Capa 2" xmlns="http://www.w3.org/2000/svg" viewBox="0 0 467.62 151.63">
  <defs>
    <style>
      .cls-1 {
        fill: #fff;
      }
    </style>
  </defs>
  <g id="Capa_1-2" data-name="Capa 1">
    <g>
      <path class="cls-1" d="M230.73,81.03c-6.67-.1-11.84-2.72-6.12-6.03,4.59,5.24,18.05-.93,17.15-10.12,7.26,9.07-2.34,15.46-11.03,16.15Z"/>
      <path class="cls-1" d="M230.74,95.79c-7.37.03-12.39-3.43-5.99-6.8,3.7,4.12,10.81,1.78,16.01-3.32,1.89-2.34,1.51-5.07,1.64-7.21,8.33,9.56-1.95,16.65-11.66,17.34Z"/>
      <path class="cls-1" d="M230.74,110.22c-7.37.03-12.39-3.43-5.99-6.8,3.7,4.12,10.81,1.78,16.01-3.32,1.89-2.34,1.51-5.07,1.64-7.21,8.33,9.56-1.95,16.65-11.66,17.34Z"/>
      <path class="cls-1" d="M231.98,124.28c-8.4-.15-12.94-5.94-6.85-9.39,1.62,9.19,20.12,2.25,17.31-7.19,6.22,7.65-3.24,15.88-10.46,16.58Z"/>
      <path class="cls-1" d="M231.84,135.56c-4.43.22-7.14-3.84-4.05-7.15.65,9.93,15.27.5,13.96-5.82,2.42,6.27-3.34,13.23-9.91,12.96Z"/>
      <path class="cls-1" d="M234.26,151.63l-4.46-9.3h.7c.36-.01.74-.04,1.13-.1,2.98-.35,5.63-2.08,7.1-4.63l.12-.13,1.48-1.11-.13,1.05c-.74,5.79-5.31,13.22-5.5,13.53l-.43.69Z"/>
      <path class="cls-1" d="M244.07,39.38c-.17-.04-.33-.07-.5-.11-3.09-.58-6.61-.91-10.36-.91-12.09,0-21.88,3.45-21.88,7.71,0,3.07,5.11,5.74,12.52,6.96,2.84.49,6.01.75,9.37.75.32,0,.64,0,.96,0,11.65-.17,20.94-3.56,20.94-7.7,0-2.87-4.44-5.37-11.03-6.69ZM244.31,47.75c-3.18.4-6.99.64-11.1.64-.26,0-.52,0-.78,0-10.77-.07-19.36-1.77-19.36-3.85s9.01-3.86,20.13-3.86c3.63,0,7.03.19,9.96.51.59.06,1.15.12,1.69.2,5.14.7,8.49,1.85,8.49,3.15s-3.59,2.52-9.04,3.21Z"/>
      <path class="cls-1" d="M258.67,59.64h-.34s.1,0,.15,0h.19Z"/>
      <path class="cls-1" d="M377.67,0c-22.97,16.05-33.33,7.03-53.56,15.29-13.89,8.88-25.56,20.72-37.89,31.68-6.72,6.28-14.07,13.51-23.43,15.39-13.39.54-40.79-.52-54.31.26h.14c-19.42,1.59-47.9-40.44-68.87-48.74-20.48-5.37-30,.28-50.41-13.88,12.86,5.34,26.28,6.87,40.11,5.77,23.74-.07,39.77,22.03,55.77,36.68,6.64,6.81,13.15,15.63,23.13,17.18,0,0,50.33,0,50.33,0,1.02-.09,2.22-.37,3.21-.75,8.34-2.96,13.95-10.26,19.91-16.43,13.13-12.75,26.02-27.62,43.25-34.89,12.7-3.97,26.23.31,39.09-3.02,4.41-1.57,9.06-3.15,13.54-4.54Z"/>
      <path class="cls-1" d="M208.67,62.61s-.04,0-.05,0h-.14.19Z"/>
      <path class="cls-1" d="M208.67,59.64h-.34.19s.1,0,.15,0Z"/>
      <g>
        <path class="cls-1" d="M311.46,28.96c28.62-19.95,65.76-14.46,98.47-13.02,19.48.28,38.59-1.58,57.68-6.28-43.26,40.51-104.55,10.43-156.15,19.3Z"/>
        <path class="cls-1" d="M298.68,42.73c29.37-16.06,63.93-9.56,95.45-5.41,18.69,1.74,37.11,1.69,55.89-.76-25.52,19.79-60.49,18.65-90.54,12.05-20.06-3.42-40.37-6.07-60.8-5.88Z"/>
        <path class="cls-1" d="M284.98,54.68c22.86-10.04,49.29-7.01,72.94-1.43,22.53,5.31,45.52,7.51,68.8,5.85-24.6,17.95-57.82,15.22-85.48,6.69-18.52-4.74-37.17-9.1-56.25-11.11Z"/>
        <path class="cls-1" d="M269.12,64.42c22.41-7.32,46.96-1.63,68.48,6.22,20.4,7.38,41.61,11.67,63.49,12.3-24.44,15.4-55.82,9.71-80.78-1.52-16.73-6.47-33.69-12.81-51.19-16.99Z"/>
        <path class="cls-1" d="M250.92,66.47c20.21-.51,39.73,7.12,57.06,16.95,16.31,8.79,33.99,14.3,52.61,16.41-39.06,22.24-77.88-13.15-109.67-33.37Z"/>
        <path class="cls-1" d="M243.97,66.55c10.93,3.64,24.58,23.67,45.52,33.69,11.58,5.54,22.74,9.76,35.71,10.06-11.02,13.26-32.64,12.39-45.19,1.58-14.34-12.51-26.04-28.93-36.05-45.32Z"/>
      </g>
      <g>
        <path class="cls-1" d="M156.15,28.96c-28.62-19.95-65.76-14.46-98.47-13.02-19.48.28-38.59-1.58-57.68-6.28,43.26,40.51,104.55,10.43,156.15,19.3Z"/>
        <path class="cls-1" d="M168.94,42.73c-29.37-16.06-63.93-9.56-95.45-5.41-18.69,1.74-37.11,1.69-55.89-.76,25.52,19.79,60.49,18.65,90.54,12.05,20.06-3.42,40.37-6.07,60.8-5.88Z"/>
        <path class="cls-1" d="M182.64,54.68c-22.86-10.04-49.29-7.01-72.94-1.43-22.53,5.31-45.52,7.51-68.8,5.85,24.6,17.95,57.82,15.22,85.48,6.69,18.52-4.74,37.17-9.1,56.25-11.11Z"/>
        <path class="cls-1" d="M198.49,64.42c-22.41-7.32-46.96-1.63-68.48,6.22-20.4,7.38-41.61,11.67-63.49,12.3,24.44,15.4,55.82,9.71,80.78-1.52,16.73-6.47,33.69-12.81,51.19-16.99Z"/>
        <path class="cls-1" d="M216.7,66.47c-20.21-.51-39.73,7.12-57.06,16.95-16.31,8.79-33.99,14.3-52.61,16.41,39.06,22.24,77.88-13.15,109.67-33.37Z"/>
        <path class="cls-1" d="M223.64,66.55c-10.93,3.64-24.58,23.67-45.52,33.69-11.58,5.54-22.74,9.76-35.71,10.06,11.02,13.26,32.64,12.39,45.19,1.58,14.34-12.51,26.04-28.93,36.05-45.32Z"/>
      </g>
    </g>
  </g>
</svg>